<?xml version="1.0" encoding="UTF-8"?>
<svg id="Layer_2" xmlns="http://www.w3.org/2000/svg" viewBox="0 0 152.1 152.1">
  <g id="_ëÎÓÈ_1" data-name="ëÎÓÈ_1">
    <g>
      <path d="M76.05,115.12c-21.55,0-39.08-17.53-39.08-39.07s17.53-39.08,39.08-39.08,39.07,17.53,39.07,39.08-17.53,39.07-39.07,39.07ZM76.05,49.98c-14.37,0-26.07,11.69-26.07,26.07s11.69,26.07,26.07,26.07,26.07-11.69,26.07-26.07-11.69-26.07-26.07-26.07Z"/>
      <path d="M112.39,152.1H39.7c-21.89,0-39.7-17.81-39.7-39.7V39.7C0,17.81,17.81,0,39.7,0h72.69c21.89,0,39.7,17.81,39.7,39.7v72.69c0,21.89-17.81,39.7-39.7,39.7ZM39.7,13.01c-14.72,0-26.7,11.98-26.7,26.7v72.69c0,14.72,11.98,26.7,26.7,26.7h72.69c14.72,0,26.7-11.98,26.7-26.7V39.7c0-14.72-11.98-26.7-26.7-26.7H39.7Z"/>
      <circle cx="116.22" cy="35.22" r="8.98"/>
    </g>
  </g>
</svg>