<?xml version="1.0" encoding="UTF-8"?>
<svg id="Layer_2" xmlns="http://www.w3.org/2000/svg" viewBox="0 0 121.67 152.1">
  <defs>
    <style>
      .cls-1 {
        fill-rule: evenodd;
      }
    </style>
  </defs>
  <g id="_ëÎÓÈ_1" data-name="ëÎÓÈ_1">
    <path class="cls-1" d="M64.52,0C21.64,0,0,29.74,0,54.56c0,4.61.56,9.02,1.68,13.11,2.55,9.3,8.04,16.81,16.81,20.27,2.06.84,3.91.03,4.51-2.17.42-1.54,1.4-5.42,1.85-7.03.59-2.2.38-2.97-1.29-4.86-2.2-2.52-3.88-5.45-4.93-9.05-.67-2.38-1.05-5.03-1.05-8.07,0-22.09,17.09-41.87,44.46-41.87,24.22,0,37.57,14.33,37.57,33.48,0,5.63-.59,11.08-1.68,16.15-3.78,17.51-13.67,30.3-26.95,30.3-9.44,0-16.53-7.55-14.26-16.81,1.29-5.28,3.18-10.77,4.75-15.9,1.78-5.66,3.22-10.94,3.22-15.1,0-7.16-3.95-13.11-12.16-13.11-9.68,0-17.44,9.65-17.44,22.58,0,2.45.28,4.65.63,6.54.84,4.54,2.27,7.3,2.27,7.3,0,0-9.89,40.51-11.6,47.6-3.46,14.16-.53,31.46-.28,33.2.14,1.05,1.54,1.29,2.17.49.87-1.12,12.37-14.85,16.29-28.55,1.12-3.92,6.33-24.05,6.33-24.05,3.14,5.8,12.34,10.9,22.05,10.9,23.66,0,41.1-16.99,46.77-41.8,1.29-5.66,1.96-11.71,1.96-18.07C121.67,24.12,98.98,0,64.52,0h0Z"/>
  </g>
</svg>