<?xml version="1.0" encoding="utf-8"?>
<!-- Generator: Adobe Illustrator 19.2.1, SVG Export Plug-In . SVG Version: 6.00 Build 0)  -->
<svg version="1.1" id="Glyph" xmlns="http://www.w3.org/2000/svg" xmlns:xlink="http://www.w3.org/1999/xlink" x="0px" y="0px"
	 viewBox="0 0 32 32" enable-background="new 0 0 32 32" xml:space="preserve">
<path id="XMLID_180_" d="M27.748,11.336C27.558,11.122,27.286,11,27,11h-5V8c0-3.309-2.691-6-6-6s-6,2.691-6,6v3H5
	c-0.286,0-0.558,0.122-0.748,0.336c-0.19,0.214-0.279,0.499-0.246,0.782l1.703,14.323C5.935,28.47,7.644,30,9.685,30h12.63
	c2.042,0,3.75-1.53,3.975-3.551l1.704-14.331C28.027,11.834,27.938,11.55,27.748,11.336z M12,8c0-2.206,1.794-4,4-4s4,1.794,4,4v3
	h-8V8z M11,15c-0.552,0-1-0.448-1-1c0-0.552,0.448-1,1-1s1,0.448,1,1C12,14.552,11.552,15,11,15z M21,15c-0.552,0-1-0.448-1-1
	c0-0.552,0.448-1,1-1s1,0.448,1,1C22,14.552,21.552,15,21,15z"/>
</svg>
